<svg xmlns="http://www.w3.org/2000/svg" width="120" height="36" viewBox="0 0 120 36"><rect width="100%" height="100%" fill="#DDDDDD"/><path fill="#999999" d="M43.675 20.88h5.2v2h-7.62V9.87h2.42zm10.67-7.38q1.02 0 1.86.33.85.34 1.44.95.6.61.93 1.49.32.89.32 1.97 0 1.1-.32 1.98-.33.89-.93 1.51-.59.62-1.44.95-.84.34-1.86.34-1.04 0-1.88-.34-.85-.33-1.45-.95t-.93-1.51q-.32-.88-.32-1.98 0-1.08.32-1.97.33-.88.93-1.49t1.45-.95q.84-.33 1.88-.33m0 7.8q1.15 0 1.7-.77.56-.77.56-2.27 0-1.49-.56-2.27-.55-.79-1.7-.79-1.17 0-1.74.79-.56.79-.56 2.27 0 1.49.56 2.27.57.77 1.74.77m9.63-3.26q.41 0 .72-.11.3-.12.5-.32.21-.19.31-.47t.1-.61q0-.69-.41-1.09-.4-.4-1.22-.4t-1.23.4-.41 1.09q0 .32.1.6.11.28.31.48t.51.32q.31.11.72.11m2.51 5.25q0-.27-.16-.44-.17-.17-.45-.26-.27-.1-.65-.14-.37-.05-.79-.07l-.86-.04q-.45-.02-.87-.07-.37.2-.6.48t-.23.65q0 .25.12.46t.39.36q.26.15.69.24.42.09 1.03.09.62 0 1.07-.1.45-.09.74-.26.3-.17.43-.4.14-.23.14-.5m-.44-9.33h2.65v.83q0 .39-.48.48l-.82.16q.19.47.19 1.04 0 .69-.28 1.24-.27.55-.76.94t-1.15.6-1.42.21q-.27 0-.53-.03-.25-.02-.49-.07-.43.26-.43.59 0 .27.25.41.26.13.68.18.43.05.97.07.54.01 1.1.06.57.04 1.11.15.54.12.96.36.43.24.68.66.26.42.26 1.08 0 .61-.3 1.18-.3.58-.87 1.03-.58.45-1.41.72-.83.28-1.89.28-1.05 0-1.82-.2-.78-.21-1.29-.54-.51-.34-.76-.78-.26-.44-.26-.92 0-.65.4-1.08.39-.44 1.07-.7-.37-.19-.58-.51-.22-.31-.22-.82 0-.21.08-.43.07-.22.22-.44.15-.21.38-.41.22-.19.53-.34-.71-.38-1.11-1.01t-.4-1.48q0-.68.28-1.24.27-.55.76-.94t1.16-.6 1.47-.21q.59 0 1.11.13.52.12.96.35m8.14-.46q1.03 0 1.87.33.84.34 1.44.95t.92 1.49q.33.89.33 1.97 0 1.1-.33 1.98-.32.89-.92 1.51t-1.44.95q-.84.34-1.87.34t-1.88-.34q-.85-.33-1.44-.95-.6-.62-.93-1.51-.33-.88-.33-1.98 0-1.08.33-1.97.33-.88.93-1.49.59-.61 1.44-.95.85-.33 1.88-.33m0 7.8q1.15 0 1.71-.77.55-.77.55-2.27 0-1.49-.55-2.27-.56-.79-1.71-.79-1.17 0-1.73.79t-.56 2.27q0 1.49.56 2.27.56.77 1.73.77"/></svg>