<svg xmlns="http://www.w3.org/2000/svg" width="536" height="300" viewBox="0 0 536 300"><rect width="100%" height="100%" fill="#DDDDDD"/><path fill="#999999" d="m122.18 132.285-1.81 10.68q1.7-.35 3.27-.51 1.56-.16 3.01-.16 4.05 0 7.14 1.21 3.09 1.2 5.18 3.33 2.1 2.13 3.16 4.99 1.07 2.86 1.07 6.16 0 4.08-1.44 7.46-1.44 3.37-4 5.76-2.55 2.4-6.05 3.71-3.49 1.32-7.61 1.32-2.42 0-4.58-.5-2.17-.5-4.07-1.33t-3.51-1.92q-1.62-1.08-2.89-2.29l2.69-3.72q.86-1.21 2.24-1.21.89 0 1.81.57.92.56 2.11 1.24 1.19.67 2.81 1.24 1.61.57 3.88.57 2.42 0 4.26-.78 1.85-.78 3.08-2.18 1.22-1.41 1.84-3.34.62-1.94.62-4.21 0-4.19-2.43-6.55t-7.19-2.36q-3.65 0-7.49 1.35l-5.47-1.56 4.26-24.92h25.35v3.72q0 1.89-1.17 3.06t-3.98 1.17zm33.41 7.17-4.62-.82q.53-3.69 2.06-6.48 1.53-2.78 3.82-4.65 2.29-1.86 5.25-2.8t6.37-.94q3.55 0 6.41 1.01t4.88 2.81q2.02 1.79 3.11 4.2 1.08 2.42 1.08 5.22 0 2.45-.55 4.31-.55 1.87-1.58 3.25-1.03 1.39-2.56 2.34-1.52.96-3.44 1.6 4.62 1.46 6.89 4.44t2.27 7.49q0 3.83-1.42 6.78t-3.83 4.95q-2.42 2.01-5.6 3.04-3.17 1.03-6.72 1.03-3.87 0-6.75-.89-2.87-.89-5-2.63t-3.62-4.26q-1.5-2.52-2.56-5.82l3.87-1.6q1.53-.64 2.86-.33 1.33.3 1.93 1.43.64 1.25 1.4 2.45.77 1.21 1.83 2.15 1.07.94 2.51 1.53 1.43.58 3.42.58 2.24 0 3.91-.72 1.66-.73 2.78-1.9t1.67-2.61.55-2.9q0-1.84-.39-3.35t-1.63-2.57q-1.24-1.07-3.57-1.67-2.33-.61-6.23-.61v-6.24q3.23-.04 5.36-.61t3.39-1.58 1.76-2.43.5-3.12q0-3.62-2.03-5.51-2.02-1.88-5.39-1.88-1.57 0-2.88.45-1.31.44-2.36 1.24t-1.76 1.86q-.71 1.07-1.06 2.35-.61 1.63-1.58 2.16-.98.53-2.75.25m66.49-15.12-15.23 18.63-1.78 2.21q1.49-.75 3.22-1.16 1.72-.41 3.71-.41 2.91 0 5.66.96t4.84 2.9q2.1 1.93 3.38 4.81 1.27 2.87 1.27 6.7 0 3.59-1.31 6.73t-3.69 5.49q-2.38 2.34-5.73 3.69-3.36 1.35-7.41 1.35-4.11 0-7.38-1.32-3.27-1.31-5.57-3.67-2.31-2.36-3.54-5.68-1.22-3.32-1.22-7.37 0-3.62 1.47-7.43 1.48-3.82 4.56-7.94l12.25-16.43q.64-.86 1.87-1.46 1.22-.6 2.82-.6zm-13.24 44.73q2.09 0 3.85-.71t3.02-1.99 1.97-3 .71-3.75q0-2.2-.68-3.95-.67-1.76-1.92-2.99-1.24-1.22-2.98-1.86t-3.83-.64q-2.1 0-3.8.71t-2.91 1.97-1.88 2.98q-.68 1.72-.68 3.71 0 2.13.59 3.89.58 1.76 1.74 3 1.15 1.24 2.86 1.93 1.7.7 3.94.7m75.26-5.15-4.65 4.58-12.04-12.04-12.14 12.11-4.65-4.58 12.14-12.18-11.57-11.57 4.61-4.61 11.58 11.57 11.5-11.5 4.68 4.61-11.53 11.54zm29.53-24.46-4.61-.82q.53-3.69 2.06-6.48 1.52-2.78 3.81-4.65 2.29-1.86 5.26-2.8 2.96-.94 6.37-.94 3.55 0 6.41 1.01 2.85 1.01 4.88 2.81 2.02 1.79 3.1 4.2 1.09 2.42 1.09 5.22 0 2.45-.55 4.31-.55 1.87-1.58 3.25-1.03 1.39-2.56 2.34-1.53.96-3.44 1.6 4.61 1.46 6.88 4.44 2.28 2.98 2.28 7.49 0 3.83-1.42 6.78t-3.84 4.95q-2.41 2.01-5.59 3.04t-6.73 1.03q-3.87 0-6.74-.89-2.88-.89-5.01-2.63t-3.62-4.26-2.55-5.82l3.87-1.6q1.52-.64 2.85-.33 1.33.3 1.94 1.43.64 1.25 1.4 2.45.76 1.21 1.83 2.15 1.06.94 2.5 1.53 1.44.58 3.43.58 2.23 0 3.9-.72 1.67-.73 2.79-1.9t1.67-2.61.55-2.9q0-1.84-.39-3.35t-1.64-2.57q-1.24-1.07-3.56-1.67-2.33-.61-6.23-.61v-6.24q3.23-.04 5.36-.61t3.39-1.58 1.75-2.43q.5-1.42.5-3.12 0-3.62-2.02-5.51-2.03-1.88-5.4-1.88-1.56 0-2.87.45-1.32.44-2.36 1.24-1.05.8-1.76 1.86-.71 1.07-1.07 2.35-.6 1.63-1.58 2.16-.97.53-2.75.25m72.14 10.54q0 6.71-1.44 11.67-1.44 4.95-3.98 8.18-2.53 3.23-6 4.81-3.46 1.58-7.47 1.58t-7.44-1.58q-3.42-1.58-5.94-4.81t-3.94-8.18q-1.42-4.96-1.42-11.67 0-6.74 1.42-11.68 1.42-4.93 3.94-8.16t5.94-4.81q3.43-1.58 7.44-1.58t7.47 1.58q3.47 1.58 6 4.81 2.54 3.23 3.98 8.16 1.44 4.94 1.44 11.68m-9.05 0q0-5.57-.82-9.23-.82-3.65-2.18-5.82-1.37-2.16-3.15-3.03-1.77-.87-3.69-.87-1.88 0-3.64.87-1.75.87-3.1 3.03-1.35 2.17-2.15 5.82-.8 3.66-.8 9.23 0 5.58.8 9.23.8 3.66 2.15 5.83 1.35 2.16 3.1 3.03 1.76.87 3.64.87 1.92 0 3.69-.87 1.78-.87 3.15-3.03 1.36-2.17 2.18-5.83.82-3.65.82-9.23m50.23 0q0 6.71-1.44 11.67-1.44 4.95-3.98 8.18-2.53 3.23-6 4.81-3.46 1.58-7.47 1.58t-7.44-1.58q-3.42-1.58-5.94-4.81t-3.94-8.18q-1.42-4.96-1.42-11.67 0-6.74 1.42-11.68 1.42-4.93 3.94-8.16t5.94-4.81q3.43-1.58 7.44-1.58t7.47 1.58q3.47 1.58 6 4.81 2.54 3.23 3.98 8.16 1.44 4.94 1.44 11.68m-9.05 0q0-5.57-.82-9.23-.82-3.65-2.18-5.82-1.37-2.16-3.15-3.03-1.77-.87-3.69-.87-1.88 0-3.64.87-1.75.87-3.1 3.03-1.35 2.17-2.15 5.82-.8 3.66-.8 9.23 0 5.58.8 9.23.8 3.66 2.15 5.83 1.35 2.16 3.1 3.03 1.76.87 3.64.87 1.92 0 3.69-.87 1.78-.87 3.15-3.03 1.36-2.17 2.18-5.83.82-3.65.82-9.23"/></svg>